<svg width="18" height="16" viewBox="0 0 18 16" fill="none" xmlns="http://www.w3.org/2000/svg">
<path d="M9.8 6.55651e-07L11.9566 -9.53674e-06C12.1123 0.715002 12.5447 1.61705 13.3008 2.51194C14.0417 3.38879 15.0235 4 16.3333 4V6C14.4241 6 12.9894 5.18644 11.9778 4.17139V11C11.9778 13.7614 9.54022 16 6.53333 16C3.52645 16 1.08889 13.7614 1.08889 11C1.08889 8.23858 3.52645 6 6.53333 6V8C4.7292 8 3.26667 9.34315 3.26667 11C3.26667 12.6569 4.7292 14 6.53333 14C8.33746 14 9.8 12.6569 9.8 11V6.55651e-07Z" fill="#F0E68C"/>
</svg>
