<svg width="16" height="16" viewBox="0 0 16 16" fill="none" xmlns="http://www.w3.org/2000/svg">
<path d="M8.05115 1.9987C8.05684 1.99871 8.06298 1.99873 8.06955 1.99874L8.14035 1.99896C8.96214 2.00198 13.1273 2.03217 14.2503 2.33408C14.9387 2.51873 15.4808 3.06288 15.6648 3.75362C15.7661 4.13311 15.8367 4.63751 15.8859 5.15626L15.8954 5.26017C15.9032 5.34687 15.9103 5.43376 15.9169 5.52033L15.9246 5.62403C15.9904 6.53814 15.998 7.39354 15.9989 7.5807L15.999 7.60594C15.999 7.60801 15.999 7.61139 15.999 7.61139V7.62556C15.999 7.62556 15.999 7.62894 15.999 7.63101L15.9989 7.65626C15.998 7.85048 15.9898 8.76437 15.9169 9.71668L15.9087 9.82068L15.9 9.9248C15.8505 10.4974 15.7762 11.0659 15.6648 11.4833C15.4808 12.1741 14.9387 12.7184 14.2503 12.9029C13.0898 13.215 8.68109 13.2368 8.06955 13.2383L8.02246 13.2384C8.0186 13.2384 8.0152 13.2384 8.01228 13.2384L7.99307 13.2385C7.99307 13.2385 7.98866 13.2385 7.98573 13.2384L7.92846 13.2383C7.61941 13.2376 6.34057 13.2316 5.0013 13.1856L4.83007 13.1795C4.8015 13.1785 4.77292 13.1774 4.74434 13.1763L4.57291 13.1695L4.40188 13.1623C3.29238 13.1136 2.23452 13.0337 1.74789 12.9029C1.05947 12.7184 0.517371 12.1741 0.333379 11.4833C0.221913 11.0659 0.147602 10.4974 0.0980616 9.9248L0.0893244 9.82068L0.0811165 9.71668C0.0109033 8.799 0.000711116 7.917 -0.000768403 7.68027L-0.000945201 7.64638C-0.000957608 7.64333 -0.000967947 7.64052 -0.000976562 7.63796V7.599C-0.000967947 7.59643 -0.000957608 7.59362 -0.000945201 7.59057L-0.000768403 7.55669C0.000571538 7.3423 0.00905783 6.59867 0.0628044 5.77858L0.0697612 5.67571C0.0709608 5.65851 0.0721808 5.64128 0.0734215 5.62403L0.0811165 5.52033C0.0877404 5.43376 0.0948985 5.34687 0.102634 5.26017L0.112196 5.15626C0.16142 4.63751 0.232046 4.13311 0.333379 3.75362C0.517371 3.06288 1.05947 2.51873 1.74789 2.33408C2.23452 2.20325 3.29238 2.12345 4.40188 2.07477L4.57291 2.06752L4.74434 2.06075C4.77292 2.05966 4.8015 2.05859 4.83007 2.05754L5.0013 2.05145C6.25508 2.00841 7.45591 2.00044 7.85767 1.99896L7.92846 1.99874C7.93504 1.99873 7.94117 1.99871 7.94686 1.9987H8.05115ZM6.39905 5.20989V10.0271L10.5558 7.61861L6.39905 5.20989Z" fill="#F0E68C"/>
</svg>
